<mxfile host="app.diagrams.net" modified="2024-05-23T22:37:39.519Z" agent="Mozilla/5.0 (Macintosh; Intel Mac OS X 10_15_7) AppleWebKit/605.1.15 (KHTML, like Gecko) Version/17.5 Safari/605.1.15" version="24.4.7" etag="zWtrJ5aehd6FHJpACcp3" type="github">
  <diagram name="Page-1" id="5ynxwBqsekzIFLL1_ItN">
    <mxGraphModel>
      <root>
        <mxCell id="0" />
        <mxCell id="1" parent="0" />
      </root>
    </mxGraphModel>
  </diagram>
</mxfile>
